<svg width="765" height="235" viewBox="0 0 765 235" fill="none" xmlns="http://www.w3.org/2000/svg">
<rect opacity="0.15" width="765" height="234.184" rx="117.092" fill="url(#paint0_linear_1_4)"/>
<path d="M215.801 152.982H197.847V94.8005H216.597C222.241 94.8005 227.07 95.9653 231.085 98.2949C235.1 100.605 238.178 103.929 240.318 108.266C242.458 112.585 243.528 117.755 243.528 123.778C243.528 129.838 242.449 135.056 240.29 139.431C238.131 143.787 234.987 147.14 230.858 149.488C226.729 151.818 221.71 152.982 215.801 152.982ZM204.892 146.732H215.347C220.157 146.732 224.144 145.804 227.307 143.948C230.47 142.092 232.828 139.45 234.381 136.022C235.934 132.594 236.71 128.513 236.71 123.778C236.71 119.081 235.943 115.037 234.409 111.647C232.875 108.238 230.583 105.624 227.534 103.806C224.485 101.969 220.688 101.051 216.142 101.051H204.892V146.732ZM272.733 153.891C268.528 153.891 264.902 152.963 261.852 151.107C258.822 149.232 256.483 146.619 254.835 143.266C253.206 139.895 252.392 135.975 252.392 131.505C252.392 127.035 253.206 123.096 254.835 119.687C256.483 116.259 258.775 113.588 261.71 111.676C264.665 109.744 268.112 108.778 272.051 108.778C274.324 108.778 276.568 109.157 278.784 109.914C281 110.672 283.017 111.903 284.835 113.607C286.653 115.293 288.102 117.528 289.182 120.312C290.261 123.096 290.801 126.524 290.801 130.596V133.437H257.165V127.641H283.983C283.983 125.179 283.491 122.982 282.506 121.051C281.54 119.119 280.157 117.594 278.358 116.477C276.578 115.359 274.475 114.801 272.051 114.801C269.381 114.801 267.07 115.463 265.119 116.789C263.188 118.096 261.701 119.801 260.659 121.903C259.617 124.005 259.097 126.259 259.097 128.664V132.528C259.097 135.823 259.665 138.617 260.801 140.908C261.956 143.181 263.557 144.914 265.602 146.107C267.648 147.282 270.025 147.869 272.733 147.869C274.494 147.869 276.085 147.623 277.506 147.13C278.945 146.619 280.186 145.861 281.227 144.857C282.269 143.835 283.074 142.566 283.642 141.051L290.119 142.869C289.438 145.066 288.292 146.998 286.682 148.664C285.072 150.312 283.083 151.6 280.716 152.528C278.348 153.437 275.688 153.891 272.733 153.891ZM335.354 109.346L319.217 152.982H312.399L296.263 109.346H303.536L315.581 144.119H316.036L328.081 109.346H335.354ZM360.936 153.891C356.732 153.891 353.105 152.963 350.055 151.107C347.025 149.232 344.686 146.619 343.038 143.266C341.41 139.895 340.595 135.975 340.595 131.505C340.595 127.035 341.41 123.096 343.038 119.687C344.686 116.259 346.978 113.588 349.913 111.676C352.868 109.744 356.315 108.778 360.254 108.778C362.527 108.778 364.771 109.157 366.987 109.914C369.203 110.672 371.22 111.903 373.038 113.607C374.857 115.293 376.305 117.528 377.385 120.312C378.465 123.096 379.004 126.524 379.004 130.596V133.437H345.368V127.641H372.186C372.186 125.179 371.694 122.982 370.709 121.051C369.743 119.119 368.36 117.594 366.561 116.477C364.781 115.359 362.679 114.801 360.254 114.801C357.584 114.801 355.273 115.463 353.322 116.789C351.391 118.096 349.904 119.801 348.862 121.903C347.821 124.005 347.3 126.259 347.3 128.664V132.528C347.3 135.823 347.868 138.617 349.004 140.908C350.16 143.181 351.76 144.914 353.805 146.107C355.851 147.282 358.228 147.869 360.936 147.869C362.697 147.869 364.288 147.623 365.709 147.13C367.148 146.619 368.389 145.861 369.43 144.857C370.472 143.835 371.277 142.566 371.845 141.051L378.322 142.869C377.641 145.066 376.495 146.998 374.885 148.664C373.275 150.312 371.286 151.6 368.919 152.528C366.552 153.437 363.891 153.891 360.936 153.891ZM395.908 94.8005V152.982H389.203V94.8005H395.908ZM425.915 153.891C421.975 153.891 418.519 152.954 415.545 151.079C412.591 149.204 410.28 146.581 408.614 143.21C406.966 139.838 406.142 135.899 406.142 131.391C406.142 126.846 406.966 122.878 408.614 119.488C410.28 116.098 412.591 113.465 415.545 111.59C418.519 109.715 421.975 108.778 425.915 108.778C429.854 108.778 433.301 109.715 436.256 111.59C439.229 113.465 441.54 116.098 443.188 119.488C444.854 122.878 445.688 126.846 445.688 131.391C445.688 135.899 444.854 139.838 443.188 143.21C441.54 146.581 439.229 149.204 436.256 151.079C433.301 152.954 429.854 153.891 425.915 153.891ZM425.915 147.869C428.907 147.869 431.369 147.102 433.301 145.568C435.233 144.033 436.663 142.016 437.591 139.516C438.519 137.016 438.983 134.308 438.983 131.391C438.983 128.475 438.519 125.757 437.591 123.238C436.663 120.719 435.233 118.683 433.301 117.13C431.369 115.577 428.907 114.801 425.915 114.801C422.922 114.801 420.46 115.577 418.528 117.13C416.597 118.683 415.167 120.719 414.239 123.238C413.311 125.757 412.847 128.475 412.847 131.391C412.847 134.308 413.311 137.016 414.239 139.516C415.167 142.016 416.597 144.033 418.528 145.568C420.46 147.102 422.922 147.869 425.915 147.869ZM455.922 169.346V109.346H462.399V116.278H463.195C463.687 115.52 464.369 114.554 465.24 113.38C466.13 112.187 467.399 111.126 469.047 110.198C470.714 109.251 472.967 108.778 475.808 108.778C479.482 108.778 482.721 109.696 485.524 111.533C488.327 113.371 490.515 115.975 492.087 119.346C493.659 122.717 494.445 126.694 494.445 131.278C494.445 135.899 493.659 139.905 492.087 143.295C490.515 146.666 488.337 149.28 485.553 151.136C482.768 152.973 479.558 153.891 475.922 153.891C473.119 153.891 470.875 153.427 469.189 152.499C467.503 151.552 466.206 150.482 465.297 149.289C464.388 148.077 463.687 147.073 463.195 146.278H462.626V169.346H455.922ZM462.513 131.164C462.513 134.46 462.996 137.367 463.962 139.886C464.928 142.386 466.339 144.346 468.195 145.766C470.051 147.168 472.323 147.869 475.013 147.869C477.816 147.869 480.155 147.13 482.03 145.653C483.924 144.157 485.344 142.149 486.291 139.63C487.257 137.092 487.74 134.27 487.74 131.164C487.74 128.096 487.267 125.331 486.32 122.869C485.392 120.388 483.981 118.427 482.087 116.988C480.212 115.53 477.854 114.801 475.013 114.801C472.286 114.801 469.994 115.492 468.138 116.874C466.282 118.238 464.88 120.151 463.933 122.613C462.986 125.056 462.513 127.907 462.513 131.164ZM522.967 153.891C518.763 153.891 515.136 152.963 512.087 151.107C509.056 149.232 506.717 146.619 505.07 143.266C503.441 139.895 502.626 135.975 502.626 131.505C502.626 127.035 503.441 123.096 505.07 119.687C506.717 116.259 509.009 113.588 511.945 111.676C514.899 109.744 518.346 108.778 522.286 108.778C524.558 108.778 526.803 109.157 529.018 109.914C531.234 110.672 533.251 111.903 535.07 113.607C536.888 115.293 538.337 117.528 539.416 120.312C540.496 123.096 541.036 126.524 541.036 130.596V133.437H507.399V127.641H534.217C534.217 125.179 533.725 122.982 532.74 121.051C531.774 119.119 530.392 117.594 528.592 116.477C526.812 115.359 524.71 114.801 522.286 114.801C519.615 114.801 517.304 115.463 515.354 116.789C513.422 118.096 511.935 119.801 510.893 121.903C509.852 124.005 509.331 126.259 509.331 128.664V132.528C509.331 135.823 509.899 138.617 511.036 140.908C512.191 143.181 513.791 144.914 515.837 146.107C517.882 147.282 520.259 147.869 522.967 147.869C524.729 147.869 526.32 147.623 527.74 147.13C529.179 146.619 530.42 145.861 531.462 144.857C532.503 143.835 533.308 142.566 533.876 141.051L540.354 142.869C539.672 145.066 538.526 146.998 536.916 148.664C535.306 150.312 533.318 151.6 530.95 152.528C528.583 153.437 525.922 153.891 522.967 153.891ZM551.234 152.982V109.346H557.712V115.937H558.166C558.962 113.778 560.401 112.026 562.484 110.681C564.568 109.337 566.916 108.664 569.53 108.664C570.022 108.664 570.638 108.674 571.376 108.693C572.115 108.712 572.674 108.74 573.053 108.778V115.596C572.825 115.539 572.304 115.454 571.49 115.34C570.695 115.208 569.852 115.141 568.962 115.141C566.84 115.141 564.947 115.587 563.28 116.477C561.632 117.348 560.325 118.56 559.359 120.113C558.412 121.647 557.939 123.399 557.939 125.369V152.982H551.234Z" fill="#487FA9"/>
<defs>
<linearGradient id="paint0_linear_1_4" x1="382.5" y1="0" x2="382.5" y2="234.184" gradientUnits="userSpaceOnUse">
<stop offset="0.435" stop-color="#5CE4B0"/>
<stop offset="1" stop-color="#4C94AE"/>
</linearGradient>
</defs>
</svg>
