<svg width="298" height="77" viewBox="0 0 298 77" fill="none" xmlns="http://www.w3.org/2000/svg">
<path d="M19.375 60H5.46023V14.9091H19.9915C24.3655 14.9091 28.1084 15.8118 31.2202 17.6172C34.3319 19.4079 36.7171 21.9839 38.3757 25.3452C40.0343 28.6918 40.8636 32.6989 40.8636 37.3665C40.8636 42.0634 40.027 46.1072 38.3537 49.4979C36.6804 52.8738 34.2438 55.4718 31.044 57.2919C27.8442 59.0973 23.9545 60 19.375 60ZM10.9205 55.1562H19.0227C22.7509 55.1562 25.8407 54.437 28.2919 52.9986C30.7431 51.5601 32.5705 49.5125 33.7741 46.8558C34.9777 44.1991 35.5795 41.036 35.5795 37.3665C35.5795 33.7263 34.9851 30.5926 33.7962 27.9652C32.6072 25.3232 30.8312 23.2976 28.468 21.8885C26.1049 20.4647 23.1619 19.7528 19.6392 19.7528H10.9205V55.1562ZM63.4972 60.7045C60.2386 60.7045 57.4278 59.9853 55.0646 58.5469C52.7161 57.0938 50.9034 55.0682 49.6264 52.4702C48.3641 49.8575 47.733 46.8191 47.733 43.3551C47.733 39.8911 48.3641 36.8381 49.6264 34.196C50.9034 31.5393 52.6795 29.4697 54.9545 27.9872C57.2443 26.4901 59.9157 25.7415 62.9688 25.7415C64.7301 25.7415 66.4695 26.035 68.1868 26.6222C69.9041 27.2093 71.4673 28.1634 72.8764 29.4844C74.2855 30.7907 75.4084 32.5227 76.245 34.6804C77.0817 36.8381 77.5 39.4948 77.5 42.6506V44.8523H51.4318V40.3608H72.2159C72.2159 38.4527 71.8343 36.75 71.071 35.2528C70.3224 33.7557 69.2509 32.5741 67.8565 31.7081C66.4768 30.8421 64.8475 30.4091 62.9688 30.4091C60.8991 30.4091 59.1084 30.9228 57.5966 31.9503C56.0994 32.9631 54.9472 34.2841 54.1399 35.9134C53.3326 37.5426 52.929 39.2893 52.929 41.1534V44.1477C52.929 46.7017 53.3693 48.8667 54.25 50.6428C55.1454 52.4041 56.3857 53.7472 57.9709 54.6719C59.5561 55.5819 61.3982 56.0369 63.4972 56.0369C64.8622 56.0369 66.0952 55.8461 67.196 55.4645C68.3116 55.0682 69.273 54.4811 70.0803 53.7031C70.8875 52.9105 71.5114 51.9271 71.9517 50.7528L76.9716 52.1619C76.4432 53.8646 75.5552 55.3617 74.3075 56.6534C73.0599 57.9304 71.5187 58.9285 69.6839 59.6477C67.8492 60.3523 65.7869 60.7045 63.4972 60.7045ZM112.028 26.1818L99.5226 60H94.2385L81.7328 26.1818H87.3691L96.7044 53.1307H97.0566L106.392 26.1818H112.028ZM131.855 60.7045C128.596 60.7045 125.785 59.9853 123.422 58.5469C121.074 57.0938 119.261 55.0682 117.984 52.4702C116.722 49.8575 116.09 46.8191 116.09 43.3551C116.09 39.8911 116.722 36.8381 117.984 34.196C119.261 31.5393 121.037 29.4697 123.312 27.9872C125.602 26.4901 128.273 25.7415 131.326 25.7415C133.088 25.7415 134.827 26.035 136.544 26.6222C138.262 27.2093 139.825 28.1634 141.234 29.4844C142.643 30.7907 143.766 32.5227 144.602 34.6804C145.439 36.8381 145.857 39.4948 145.857 42.6506V44.8523H119.789V40.3608H140.573C140.573 38.4527 140.192 36.75 139.428 35.2528C138.68 33.7557 137.608 32.5741 136.214 31.7081C134.834 30.8421 133.205 30.4091 131.326 30.4091C129.257 30.4091 127.466 30.9228 125.954 31.9503C124.457 32.9631 123.305 34.2841 122.497 35.9134C121.69 37.5426 121.286 39.2893 121.286 41.1534V44.1477C121.286 46.7017 121.727 48.8667 122.607 50.6428C123.503 52.4041 124.743 53.7472 126.328 54.6719C127.914 55.5819 129.756 56.0369 131.855 56.0369C133.22 56.0369 134.453 55.8461 135.553 55.4645C136.669 55.0682 137.63 54.4811 138.438 53.7031C139.245 52.9105 139.869 51.9271 140.309 50.7528L145.329 52.1619C144.801 53.8646 143.913 55.3617 142.665 56.6534C141.417 57.9304 139.876 58.9285 138.041 59.6477C136.207 60.3523 134.144 60.7045 131.855 60.7045ZM158.958 14.9091V60H153.762V14.9091H158.958ZM182.213 60.7045C179.16 60.7045 176.481 59.978 174.177 58.5249C171.887 57.0717 170.096 55.0388 168.805 52.4261C167.528 49.8134 166.889 46.7604 166.889 43.267C166.889 39.7443 167.528 36.6693 168.805 34.0419C170.096 31.4145 171.887 29.3743 174.177 27.9212C176.481 26.468 179.16 25.7415 182.213 25.7415C185.266 25.7415 187.938 26.468 190.227 27.9212C192.532 29.3743 194.322 31.4145 195.599 34.0419C196.891 36.6693 197.537 39.7443 197.537 43.267C197.537 46.7604 196.891 49.8134 195.599 52.4261C194.322 55.0388 192.532 57.0717 190.227 58.5249C187.938 59.978 185.266 60.7045 182.213 60.7045ZM182.213 56.0369C184.532 56.0369 186.44 55.4425 187.938 54.2536C189.435 53.0646 190.543 51.5014 191.262 49.5639C191.981 47.6264 192.341 45.5275 192.341 43.267C192.341 41.0066 191.981 38.9003 191.262 36.9482C190.543 34.996 189.435 33.4181 187.938 32.2145C186.44 31.0109 184.532 30.4091 182.213 30.4091C179.894 30.4091 177.986 31.0109 176.489 32.2145C174.991 33.4181 173.883 34.996 173.164 36.9482C172.445 38.9003 172.085 41.0066 172.085 43.267C172.085 45.5275 172.445 47.6264 173.164 49.5639C173.883 51.5014 174.991 53.0646 176.489 54.2536C177.986 55.4425 179.894 56.0369 182.213 56.0369ZM205.469 72.6818V26.1818H210.488V31.554H211.105C211.487 30.9669 212.015 30.2183 212.69 29.3082C213.38 28.3835 214.363 27.5616 215.64 26.8423C216.932 26.1084 218.679 25.7415 220.881 25.7415C223.728 25.7415 226.238 26.4534 228.41 27.8771C230.583 29.3009 232.278 31.3191 233.496 33.9318C234.715 36.5445 235.324 39.6269 235.324 43.179C235.324 46.7604 234.715 49.8648 233.496 52.4922C232.278 55.1049 230.59 57.1304 228.432 58.5689C226.275 59.9927 223.787 60.7045 220.969 60.7045C218.796 60.7045 217.057 60.3449 215.751 59.6257C214.444 58.8918 213.439 58.0625 212.734 57.1378C212.03 56.1984 211.487 55.4205 211.105 54.804H210.665V72.6818H205.469ZM210.577 43.0909C210.577 45.6449 210.951 47.898 211.699 49.8501C212.448 51.7876 213.541 53.3068 214.98 54.4077C216.418 55.4938 218.18 56.0369 220.264 56.0369C222.436 56.0369 224.249 55.4645 225.702 54.3196C227.17 53.16 228.271 51.6042 229.005 49.652C229.753 47.6851 230.128 45.4981 230.128 43.0909C230.128 40.7131 229.761 38.5701 229.027 36.6619C228.308 34.7391 227.214 33.2199 225.746 32.1044C224.293 30.9742 222.466 30.4091 220.264 30.4091C218.15 30.4091 216.374 30.9448 214.936 32.0163C213.497 33.0732 212.411 34.5556 211.677 36.4638C210.943 38.3572 210.577 40.5663 210.577 43.0909ZM257.429 60.7045C254.17 60.7045 251.359 59.9853 248.996 58.5469C246.648 57.0938 244.835 55.0682 243.558 52.4702C242.296 49.8575 241.665 46.8191 241.665 43.3551C241.665 39.8911 242.296 36.8381 243.558 34.196C244.835 31.5393 246.611 29.4697 248.886 27.9872C251.176 26.4901 253.847 25.7415 256.9 25.7415C258.662 25.7415 260.401 26.035 262.118 26.6222C263.836 27.2093 265.399 28.1634 266.808 29.4844C268.217 30.7907 269.34 32.5227 270.177 34.6804C271.013 36.8381 271.432 39.4948 271.432 42.6506V44.8523H245.363V40.3608H266.148C266.148 38.4527 265.766 36.75 265.003 35.2528C264.254 33.7557 263.183 32.5741 261.788 31.7081C260.408 30.8421 258.779 30.4091 256.9 30.4091C254.831 30.4091 253.04 30.9228 251.528 31.9503C250.031 32.9631 248.879 34.2841 248.072 35.9134C247.264 37.5426 246.861 39.2893 246.861 41.1534V44.1477C246.861 46.7017 247.301 48.8667 248.182 50.6428C249.077 52.4041 250.317 53.7472 251.903 54.6719C253.488 55.5819 255.33 56.0369 257.429 56.0369C258.794 56.0369 260.027 55.8461 261.128 55.4645C262.243 55.0682 263.205 54.4811 264.012 53.7031C264.819 52.9105 265.443 51.9271 265.883 50.7528L270.903 52.1619C270.375 53.8646 269.487 55.3617 268.239 56.6534C266.992 57.9304 265.45 58.9285 263.616 59.6477C261.781 60.3523 259.719 60.7045 257.429 60.7045ZM279.336 60V26.1818H284.356V31.2898H284.708C285.324 29.6165 286.44 28.2588 288.055 27.2166C289.669 26.1745 291.489 25.6534 293.515 25.6534C293.896 25.6534 294.373 25.6607 294.946 25.6754C295.518 25.6901 295.951 25.7121 296.245 25.7415V31.0256C296.069 30.9815 295.665 30.9155 295.034 30.8274C294.417 30.7247 293.764 30.6733 293.074 30.6733C291.43 30.6733 289.963 31.0182 288.671 31.7081C287.394 32.3833 286.381 33.3227 285.633 34.5263C284.899 35.7152 284.532 37.0729 284.532 38.5994V60H279.336Z" fill="url(#paint0_linear_9_14)"/>
<path d="M0 72.3295H80.6705V76.5568H0V72.3295ZM79.6191 72.3295H114.142V76.5568H79.6191V72.3295ZM112.92 72.3295H149.028V76.5568H112.92V72.3295ZM149.006 72.3295H274.602V76.5568H149.006V72.3295ZM274.58 72.3295H297.654V76.5568H274.58V72.3295Z" fill="url(#paint1_linear_9_14)"/>
<defs>
<linearGradient id="paint0_linear_9_14" x1="149" y1="0" x2="149" y2="75" gradientUnits="userSpaceOnUse">
<stop stop-color="#F0F8FF"/>
<stop offset="0.0001" stop-color="#F0F8FF"/>
<stop offset="0.405" stop-color="#F0F8FF"/>
</linearGradient>
<linearGradient id="paint1_linear_9_14" x1="149" y1="0" x2="149" y2="75" gradientUnits="userSpaceOnUse">
<stop stop-color="#F0F8FF"/>
<stop offset="0.0001" stop-color="#F0F8FF"/>
<stop offset="0.405" stop-color="#F0F8FF"/>
</linearGradient>
</defs>
</svg>
