<svg width="239" height="77" viewBox="0 0 239 77" fill="none" xmlns="http://www.w3.org/2000/svg">
<path d="M1.58523 14.9091H7.83807L20.3438 35.9574H20.8722L33.3778 14.9091H39.6307L23.3381 41.4176V60H17.8778V41.4176L1.58523 14.9091ZM54.9435 60.7045C51.8905 60.7045 49.2118 59.978 46.9073 58.5249C44.6175 57.0717 42.8268 55.0388 41.5352 52.4261C40.2582 49.8134 39.6197 46.7604 39.6197 43.267C39.6197 39.7443 40.2582 36.6693 41.5352 34.0419C42.8268 31.4145 44.6175 29.3743 46.9073 27.9212C49.2118 26.468 51.8905 25.7415 54.9435 25.7415C57.9966 25.7415 60.668 26.468 62.9577 27.9212C65.2622 29.3743 67.0529 31.4145 68.3299 34.0419C69.6216 36.6693 70.2674 39.7443 70.2674 43.267C70.2674 46.7604 69.6216 49.8134 68.3299 52.4261C67.0529 55.0388 65.2622 57.0717 62.9577 58.5249C60.668 59.978 57.9966 60.7045 54.9435 60.7045ZM54.9435 56.0369C57.2627 56.0369 59.1708 55.4425 60.668 54.2536C62.1651 53.0646 63.2733 51.5014 63.9925 49.5639C64.7118 47.6264 65.0714 45.5275 65.0714 43.267C65.0714 41.0066 64.7118 38.9003 63.9925 36.9482C63.2733 34.996 62.1651 33.4181 60.668 32.2145C59.1708 31.0109 57.2627 30.4091 54.9435 30.4091C52.6244 30.4091 50.7163 31.0109 49.2191 32.2145C47.7219 33.4181 46.6138 34.996 45.8945 36.9482C45.1753 38.9003 44.8157 41.0066 44.8157 43.267C44.8157 45.5275 45.1753 47.6264 45.8945 49.5639C46.6138 51.5014 47.7219 53.0646 49.2191 54.2536C50.7163 55.4425 52.6244 56.0369 54.9435 56.0369ZM99.5115 46.1733V26.1818H104.708V60H99.5115V54.2756H99.1593C98.3667 55.9929 97.1337 57.4534 95.4604 58.657C93.7871 59.8459 91.6735 60.4403 89.1195 60.4403C87.0059 60.4403 85.1271 59.978 83.4831 59.0533C81.8392 58.1139 80.5475 56.7048 79.6081 54.826C78.6687 52.9325 78.199 50.5473 78.199 47.6705V26.1818H83.3951V47.3182C83.3951 49.7841 84.0849 51.7509 85.4647 53.2188C86.8591 54.6866 88.6351 55.4205 90.7928 55.4205C92.0845 55.4205 93.3981 55.0902 94.7338 54.4297C96.0842 53.7692 97.2144 52.7564 98.1245 51.3913C99.0492 50.0263 99.5115 48.2869 99.5115 46.1733ZM114.224 60V26.1818H119.244V31.2898H119.597C120.213 29.6165 121.329 28.2588 122.943 27.2166C124.558 26.1745 126.378 25.6534 128.403 25.6534C128.785 25.6534 129.262 25.6607 129.835 25.6754C130.407 25.6901 130.84 25.7121 131.134 25.7415V31.0256C130.957 30.9815 130.554 30.9155 129.923 30.8274C129.306 30.7247 128.653 30.6733 127.963 30.6733C126.319 30.6733 124.851 31.0182 123.56 31.7081C122.283 32.3833 121.27 33.3227 120.521 34.5263C119.787 35.7152 119.42 37.0729 119.42 38.5994V60H114.224ZM161.247 33.7557L156.58 35.0767C156.286 34.2988 155.853 33.5428 155.281 32.8089C154.723 32.0604 153.96 31.4439 152.991 30.9595C152.022 30.4751 150.782 30.233 149.27 30.233C147.2 30.233 145.476 30.71 144.096 31.6641C142.731 32.6035 142.048 33.7997 142.048 35.2528C142.048 36.5445 142.518 37.5646 143.458 38.3132C144.397 39.0618 145.865 39.6856 147.861 40.1847L152.881 41.4176C155.905 42.1515 158.158 43.2744 159.64 44.7862C161.123 46.2834 161.864 48.2135 161.864 50.5767C161.864 52.5142 161.306 54.2462 160.191 55.7727C159.09 57.2992 157.548 58.5028 155.567 59.3835C153.585 60.2642 151.281 60.7045 148.654 60.7045C145.204 60.7045 142.349 59.956 140.089 58.4588C137.829 56.9616 136.397 54.7746 135.796 51.8977L140.727 50.6648C141.197 52.4848 142.085 53.8499 143.392 54.7599C144.713 55.67 146.437 56.125 148.566 56.125C150.987 56.125 152.91 55.6113 154.334 54.5838C155.772 53.5417 156.492 52.294 156.492 50.8409C156.492 49.6667 156.081 48.6832 155.259 47.8906C154.437 47.0833 153.174 46.4815 151.472 46.0852L145.835 44.7642C142.738 44.0303 140.463 42.8928 139.01 41.3516C137.572 39.7957 136.852 37.8509 136.852 35.517C136.852 33.6089 137.388 31.9209 138.46 30.4531C139.546 28.9853 141.021 27.8331 142.885 26.9964C144.764 26.1598 146.892 25.7415 149.27 25.7415C152.617 25.7415 155.244 26.4754 157.152 27.9432C159.075 29.411 160.44 31.3485 161.247 33.7557ZM183.864 60.7045C180.606 60.7045 177.795 59.9853 175.432 58.5469C173.083 57.0938 171.271 55.0682 169.994 52.4702C168.731 49.8575 168.1 46.8191 168.1 43.3551C168.1 39.8911 168.731 36.8381 169.994 34.196C171.271 31.5393 173.047 29.4697 175.322 27.9872C177.612 26.4901 180.283 25.7415 183.336 25.7415C185.097 25.7415 186.837 26.035 188.554 26.6222C190.271 27.2093 191.835 28.1634 193.244 29.4844C194.653 30.7907 195.776 32.5227 196.612 34.6804C197.449 36.8381 197.867 39.4948 197.867 42.6506V44.8523H171.799V40.3608H192.583C192.583 38.4527 192.201 36.75 191.438 35.2528C190.69 33.7557 189.618 32.5741 188.224 31.7081C186.844 30.8421 185.215 30.4091 183.336 30.4091C181.266 30.4091 179.476 30.9228 177.964 31.9503C176.467 32.9631 175.314 34.2841 174.507 35.9134C173.7 37.5426 173.296 39.2893 173.296 41.1534V44.1477C173.296 46.7017 173.737 48.8667 174.617 50.6428C175.513 52.4041 176.753 53.7472 178.338 54.6719C179.923 55.5819 181.765 56.0369 183.864 56.0369C185.229 56.0369 186.462 55.8461 187.563 55.4645C188.679 55.0682 189.64 54.4811 190.447 53.7031C191.255 52.9105 191.879 51.9271 192.319 50.7528L197.339 52.1619C196.81 53.8646 195.922 55.3617 194.675 56.6534C193.427 57.9304 191.886 58.9285 190.051 59.6477C188.216 60.3523 186.154 60.7045 183.864 60.7045ZM210.967 14.9091V60H205.771V14.9091H210.967ZM235.544 26.1818V30.5852H217.314V26.1818H235.544ZM222.774 60V21.5142C222.774 19.5767 223.229 17.9621 224.139 16.6705C225.049 15.3788 226.231 14.41 227.684 13.7642C229.137 13.1184 230.671 12.7955 232.285 12.7955C233.562 12.7955 234.604 12.8982 235.412 13.1037C236.219 13.3092 236.821 13.5 237.217 13.6761L235.72 18.1676C235.456 18.0795 235.089 17.9695 234.619 17.8374C234.164 17.7053 233.562 17.6392 232.814 17.6392C231.096 17.6392 229.856 18.0722 229.093 18.9382C228.344 19.8042 227.97 21.0739 227.97 22.7472V60H222.774Z" fill="url(#paint0_linear_8_6)"/>
<path d="M0 72.3295H41.2159V76.5568H0V72.3295ZM36.4492 72.3295H132.543V76.5568H36.4492V72.3295ZM132.537 72.3295H164.946V76.5568H132.537V72.3295ZM164.93 72.3295H201.038V76.5568H164.93V72.3295ZM201.016 72.3295H238.098V76.5568H201.016V72.3295Z" fill="url(#paint1_linear_8_6)"/>
<defs>
<linearGradient id="paint0_linear_8_6" x1="119.5" y1="0" x2="119.5" y2="75" gradientUnits="userSpaceOnUse">
<stop stop-color="#F0F8FF"/>
<stop offset="0.0001" stop-color="#F0F8FF"/>
<stop offset="0.405" stop-color="#F0F8FF"/>
</linearGradient>
<linearGradient id="paint1_linear_8_6" x1="119.5" y1="0" x2="119.5" y2="75" gradientUnits="userSpaceOnUse">
<stop stop-color="#F0F8FF"/>
<stop offset="0.0001" stop-color="#F0F8FF"/>
<stop offset="0.405" stop-color="#F0F8FF"/>
</linearGradient>
</defs>
</svg>
