<svg width="765" height="235" viewBox="0 0 765 235" fill="none" xmlns="http://www.w3.org/2000/svg">
<rect opacity="0.15" width="765" height="234.184" rx="117.092" fill="url(#paint0_linear_0_3)"/>
<path d="M231.284 94.8005H239.352L255.489 121.96H256.17L272.307 94.8005H280.375L259.352 129.005V152.982H252.307V129.005L231.284 94.8005ZM300.134 153.891C296.194 153.891 292.738 152.954 289.764 151.079C286.81 149.204 284.499 146.581 282.832 143.21C281.185 139.838 280.361 135.899 280.361 131.391C280.361 126.846 281.185 122.878 282.832 119.488C284.499 116.098 286.81 113.465 289.764 111.59C292.738 109.715 296.194 108.778 300.134 108.778C304.073 108.778 307.52 109.715 310.474 111.59C313.448 113.465 315.759 116.098 317.406 119.488C319.073 122.878 319.906 126.846 319.906 131.391C319.906 135.899 319.073 139.838 317.406 143.21C315.759 146.581 313.448 149.204 310.474 151.079C307.52 152.954 304.073 153.891 300.134 153.891ZM300.134 147.869C303.126 147.869 305.588 147.102 307.52 145.568C309.452 144.033 310.882 142.016 311.81 139.516C312.738 137.016 313.202 134.308 313.202 131.391C313.202 128.475 312.738 125.757 311.81 123.238C310.882 120.719 309.452 118.683 307.52 117.13C305.588 115.577 303.126 114.801 300.134 114.801C297.141 114.801 294.679 115.577 292.747 117.13C290.815 118.683 289.385 120.719 288.457 123.238C287.529 125.757 287.065 128.475 287.065 131.391C287.065 134.308 287.529 137.016 288.457 139.516C289.385 142.016 290.815 144.033 292.747 145.568C294.679 147.102 297.141 147.869 300.134 147.869ZM357.641 135.141V109.346H364.345V152.982H357.641V145.596H357.186C356.163 147.812 354.572 149.696 352.413 151.249C350.254 152.783 347.527 153.551 344.232 153.551C341.504 153.551 339.08 152.954 336.959 151.761C334.838 150.549 333.171 148.73 331.959 146.306C330.747 143.863 330.141 140.785 330.141 137.073V109.346H336.845V136.619C336.845 139.801 337.735 142.338 339.516 144.232C341.315 146.126 343.607 147.073 346.391 147.073C348.057 147.073 349.752 146.647 351.476 145.795C353.218 144.943 354.677 143.636 355.851 141.874C357.044 140.113 357.641 137.869 357.641 135.141ZM376.625 152.982V109.346H383.102V115.937H383.557C384.352 113.778 385.792 112.026 387.875 110.681C389.958 109.337 392.307 108.664 394.92 108.664C395.413 108.664 396.028 108.674 396.767 108.693C397.506 108.712 398.064 108.74 398.443 108.778V115.596C398.216 115.539 397.695 115.454 396.881 115.34C396.085 115.208 395.242 115.141 394.352 115.141C392.231 115.141 390.337 115.587 388.67 116.477C387.023 117.348 385.716 118.56 384.75 120.113C383.803 121.647 383.33 123.399 383.33 125.369V152.982H376.625ZM437.3 119.119L431.277 120.823C430.898 119.819 430.339 118.844 429.601 117.897C428.881 116.931 427.896 116.136 426.646 115.511C425.396 114.886 423.796 114.573 421.845 114.573C419.175 114.573 416.949 115.189 415.169 116.42C413.408 117.632 412.527 119.176 412.527 121.051C412.527 122.717 413.133 124.033 414.345 124.999C415.557 125.965 417.451 126.77 420.027 127.414L426.504 129.005C430.406 129.952 433.313 131.401 435.226 133.352C437.139 135.283 438.095 137.774 438.095 140.823C438.095 143.323 437.375 145.558 435.936 147.528C434.516 149.497 432.527 151.051 429.97 152.187C427.413 153.323 424.44 153.891 421.05 153.891C416.599 153.891 412.915 152.926 409.999 150.994C407.082 149.062 405.235 146.24 404.459 142.528L410.822 140.937C411.428 143.285 412.574 145.047 414.26 146.221C415.964 147.395 418.19 147.982 420.936 147.982C424.061 147.982 426.542 147.319 428.379 145.994C430.235 144.649 431.163 143.039 431.163 141.164C431.163 139.649 430.633 138.38 429.572 137.357C428.512 136.316 426.883 135.539 424.686 135.028L417.413 133.323C413.417 132.376 410.482 130.908 408.607 128.92C406.75 126.912 405.822 124.403 405.822 121.391C405.822 118.929 406.514 116.751 407.896 114.857C409.298 112.963 411.201 111.477 413.607 110.397C416.031 109.318 418.777 108.778 421.845 108.778C426.163 108.778 429.553 109.725 432.016 111.619C434.497 113.513 436.258 116.013 437.3 119.119ZM466.483 153.891C462.278 153.891 458.651 152.963 455.602 151.107C452.572 149.232 450.233 146.619 448.585 143.266C446.956 139.895 446.142 135.975 446.142 131.505C446.142 127.035 446.956 123.096 448.585 119.687C450.233 116.259 452.525 113.588 455.46 111.676C458.415 109.744 461.862 108.778 465.801 108.778C468.074 108.778 470.318 109.157 472.534 109.914C474.75 110.672 476.767 111.903 478.585 113.607C480.403 115.293 481.852 117.528 482.932 120.312C484.011 123.096 484.551 126.524 484.551 130.596V133.437H450.915V127.641H477.733C477.733 125.179 477.241 122.982 476.256 121.051C475.29 119.119 473.907 117.594 472.108 116.477C470.328 115.359 468.225 114.801 465.801 114.801C463.131 114.801 460.82 115.463 458.869 116.789C456.937 118.096 455.451 119.801 454.409 121.903C453.367 124.005 452.847 126.259 452.847 128.664V132.528C452.847 135.823 453.415 138.617 454.551 140.908C455.706 143.181 457.307 144.914 459.352 146.107C461.398 147.282 463.775 147.869 466.483 147.869C468.244 147.869 469.835 147.622 471.256 147.13C472.695 146.619 473.936 145.861 474.977 144.857C476.019 143.835 476.824 142.566 477.392 141.051L483.869 142.869C483.187 145.066 482.042 146.997 480.432 148.664C478.822 150.312 476.833 151.6 474.466 152.528C472.098 153.437 469.437 153.891 466.483 153.891ZM501.455 94.8005V152.982H494.75V94.8005H501.455ZM533.166 109.346V115.028H509.643V109.346H533.166ZM516.689 152.982V103.323C516.689 100.823 517.276 98.7399 518.45 97.0733C519.625 95.4066 521.149 94.1566 523.024 93.3233C524.899 92.4899 526.878 92.0733 528.962 92.0733C530.609 92.0733 531.954 92.2058 532.996 92.471C534.037 92.7361 534.814 92.9823 535.325 93.2096L533.393 99.0051C533.053 98.8914 532.579 98.7494 531.973 98.5789C531.386 98.4085 530.609 98.3233 529.643 98.3233C527.428 98.3233 525.827 98.882 524.842 99.9994C523.876 101.117 523.393 102.755 523.393 104.914V152.982H516.689Z" fill="#F0F8FF"/>
<defs>
<linearGradient id="paint0_linear_0_3" x1="382.5" y1="0" x2="382.5" y2="234.184" gradientUnits="userSpaceOnUse">
<stop offset="0.435" stop-color="#5CE4B0"/>
<stop offset="1" stop-color="#4C94AE"/>
</linearGradient>
</defs>
</svg>
